<svg width="163" height="69" viewBox="0 0 163 69" fill="none" xmlns="http://www.w3.org/2000/svg">
<path d="M33.3205 1.09091V68H15.1557V17.8182H14.7637L0.127308 26.5739V11.1534L16.5932 1.09091H33.3205ZM74.3709 68.9148C68.9694 68.9148 64.1451 68.0762 59.8979 66.3991C55.6725 64.7221 52.3401 62.446 49.9007 59.571C47.4831 56.696 46.2743 53.4508 46.2743 49.8352C46.2743 47.0691 46.9604 44.5426 48.3326 42.2557C49.7265 39.9687 51.5996 38.0739 53.9519 36.571C56.3042 35.0464 58.9287 34.0663 61.8255 33.6307V33.108C58.0139 32.4545 54.8775 30.7666 52.4164 28.044C49.977 25.2997 48.7573 22.0653 48.7573 18.3409C48.7573 14.8343 49.8681 11.7197 52.0897 8.99716C54.3113 6.25284 57.3496 4.09659 61.2047 2.52841C65.0598 0.960225 69.4486 0.176134 74.3709 0.176134C79.2933 0.176134 83.682 0.971115 87.5371 2.56108C91.3922 4.12926 94.4306 6.28551 96.6522 9.02983C98.8738 11.7524 99.9846 14.8561 99.9846 18.3409C99.9846 22.0871 98.7431 25.3215 96.2601 28.044C93.7772 30.7666 90.6626 32.4545 86.9164 33.108V33.6307C89.7914 34.0663 92.405 35.0464 94.7573 36.571C97.1096 38.0739 98.9827 39.9687 100.377 42.2557C101.771 44.5426 102.468 47.0691 102.468 49.8352C102.468 53.4508 101.248 56.696 98.8084 59.571C96.3908 62.446 93.0584 64.7221 88.8113 66.3991C84.5859 68.0762 79.7724 68.9148 74.3709 68.9148ZM74.3709 56.3693C76.0916 56.3693 77.6162 56.0208 78.9448 55.3239C80.2734 54.6269 81.3188 53.6686 82.0811 52.4489C82.8652 51.2074 83.2573 49.8134 83.2573 48.267C83.2573 46.7206 82.8652 45.3485 82.0811 44.1506C81.3188 42.9527 80.2734 42.0161 78.9448 41.3409C77.6162 40.6439 76.0916 40.2955 74.3709 40.2955C72.6721 40.2955 71.1474 40.6439 69.7971 41.3409C68.4685 42.0161 67.4121 42.9527 66.628 44.1506C65.8657 45.3485 65.4846 46.7206 65.4846 48.267C65.4846 49.8134 65.8657 51.1965 66.628 52.4162C67.4121 53.6359 68.4685 54.6051 69.7971 55.3239C71.1474 56.0208 72.6721 56.3693 74.3709 56.3693ZM74.3709 27.75C75.8955 27.75 77.2459 27.4342 78.4221 26.8026C79.5982 26.1709 80.5239 25.2997 81.199 24.1889C81.8742 23.0781 82.2118 21.8258 82.2118 20.4318C82.2118 19.0379 81.8742 17.8073 81.199 16.7401C80.5239 15.651 79.5982 14.8016 78.4221 14.1918C77.2459 13.5601 75.8955 13.2443 74.3709 13.2443C72.8681 13.2443 71.5177 13.5601 70.3198 14.1918C69.1436 14.8016 68.218 15.651 67.5428 16.7401C66.8676 17.8073 66.53 19.0379 66.53 20.4318C66.53 21.8258 66.8676 23.0781 67.5428 24.1889C68.218 25.2779 69.1436 26.1491 70.3198 26.8026C71.5177 27.4342 72.8681 27.75 74.3709 27.75ZM130.703 58.8523V10.5H145.339V58.8523H130.703ZM113.845 41.9943V27.358H162.197V41.9943H113.845Z" fill="#16B40A"/>
</svg>
