<svg aria-hidden="true" style="position: absolute; width: 0; height: 0; overflow: hidden;" version="1.1" xmlns="http://www.w3.org/2000/svg" xmlns:xlink="http://www.w3.org/1999/xlink">
<defs>
<symbol id="icon-flowbite_download-solid" viewBox="0 0 32 32">
<path d="M17.333 14.867v-9.533c0-0.354-0.141-0.693-0.391-0.943s-0.589-0.391-0.943-0.391c-0.354 0-0.693 0.14-0.943 0.391s-0.391 0.589-0.391 0.943v9.533l-2.96-3.701c-0.107-0.143-0.242-0.263-0.397-0.352s-0.325-0.147-0.503-0.17c-0.177-0.022-0.357-0.009-0.529 0.040s-0.332 0.131-0.472 0.243c-0.139 0.112-0.255 0.25-0.34 0.407s-0.137 0.33-0.154 0.508c-0.017 0.178 0.002 0.357 0.056 0.527s0.141 0.328 0.257 0.464l5.333 6.667c0.125 0.156 0.283 0.281 0.463 0.368s0.377 0.131 0.577 0.131 0.397-0.045 0.577-0.131c0.18-0.086 0.338-0.212 0.463-0.368l5.333-6.667c0.116-0.136 0.203-0.294 0.257-0.464s0.073-0.35 0.056-0.527c-0.017-0.178-0.069-0.35-0.154-0.508s-0.2-0.296-0.34-0.407c-0.139-0.112-0.3-0.194-0.472-0.243s-0.352-0.062-0.529-0.040c-0.177 0.022-0.348 0.080-0.503 0.17s-0.289 0.209-0.397 0.352l-2.96 3.701z"></path>
<path d="M12.876 21.165c0.375 0.468 0.85 0.847 1.391 1.106s1.133 0.395 1.733 0.395 1.192-0.135 1.733-0.395c0.541-0.26 1.016-0.638 1.391-1.106l3.067-3.832h3.144c0.707 0 1.385 0.281 1.886 0.781s0.781 1.178 0.781 1.886v5.333c0 0.707-0.281 1.385-0.781 1.886s-1.178 0.781-1.886 0.781h-18.667c-0.707 0-1.386-0.281-1.886-0.781s-0.781-1.178-0.781-1.886v-5.333c0-0.707 0.281-1.385 0.781-1.886s1.178-0.781 1.886-0.781h3.144l3.065 3.832zM22.667 21.333c-0.354 0-0.693 0.141-0.943 0.391s-0.391 0.589-0.391 0.943c0 0.354 0.141 0.693 0.391 0.943s0.589 0.391 0.943 0.391h0.013c0.354 0 0.693-0.141 0.943-0.391s0.391-0.589 0.391-0.943c0-0.354-0.141-0.693-0.391-0.943s-0.589-0.391-0.943-0.391h-0.013z"></path>
</symbol>
<symbol id="icon-fluent_wand" viewBox="0 0 29 32">
<path d="M13.937 12.62l-10.642 11.619c-0.501 0.572-0.777 1.335-0.769 2.126s0.3 1.547 0.813 2.107c0.513 0.559 1.207 0.877 1.932 0.885s1.425-0.294 1.948-0.841l10.641-11.616-3.923-4.28zM20.595 20.009l-0.125-0.009c-0.222 0-0.436 0.087-0.603 0.246s-0.275 0.378-0.306 0.618l-0.009 0.136v1h-0.917c-0.222 0-0.436 0.087-0.603 0.246s-0.275 0.378-0.306 0.618l-0.009 0.136c0 0.507 0.345 0.925 0.792 0.991l0.125 0.009h0.917v1c0 0.507 0.345 0.925 0.792 0.991l0.125 0.009c0.221 0 0.435-0.087 0.602-0.246s0.276-0.378 0.306-0.618l0.009-0.136v-1h0.917c0.221 0 0.435-0.087 0.602-0.246s0.276-0.378 0.306-0.618l0.009-0.136c0-0.242-0.080-0.475-0.226-0.657s-0.347-0.301-0.566-0.333l-0.125-0.009h-0.917v-1c0-0.242-0.080-0.475-0.226-0.657s-0.347-0.301-0.566-0.333zM16.271 10.087l-0.166 0.168-0.87 0.951 3.923 4.28 0.87-0.952c0.255-0.279 0.458-0.609 0.596-0.973s0.209-0.754 0.209-1.148-0.071-0.784-0.21-1.148c-0.138-0.364-0.341-0.695-0.596-0.973l-0.192-0.195c-0.496-0.463-1.127-0.718-1.78-0.72s-1.285 0.25-1.784 0.71zM8.373 6.676l-0.125-0.009c-0.222 0-0.436 0.088-0.602 0.246s-0.276 0.378-0.306 0.618l-0.009 0.136v1h-0.917c-0.222 0-0.436 0.088-0.602 0.246s-0.276 0.378-0.306 0.618l-0.009 0.136c0 0.507 0.345 0.924 0.792 0.991l0.125 0.009h0.917v1c0 0.507 0.345 0.924 0.792 0.991l0.125 0.009c0.222 0 0.436-0.088 0.602-0.246s0.276-0.378 0.306-0.618l0.009-0.136v-1h0.917c0.222 0 0.436-0.088 0.602-0.246s0.276-0.378 0.306-0.618l0.009-0.136c0-0.242-0.080-0.475-0.226-0.657s-0.347-0.301-0.566-0.333l-0.125-0.009h-0.917v-1c0-0.242-0.080-0.475-0.226-0.657s-0.347-0.301-0.566-0.333zM23.039 4.009l-0.125-0.009c-0.221 0-0.435 0.088-0.603 0.246s-0.275 0.378-0.306 0.618l-0.009 0.136v1h-0.917c-0.221 0-0.435 0.088-0.603 0.246s-0.275 0.378-0.306 0.618l-0.009 0.136c0 0.507 0.345 0.924 0.792 0.991l0.125 0.009h0.917v1c0 0.507 0.345 0.924 0.792 0.991l0.125 0.009c0.221 0 0.435-0.088 0.603-0.246s0.275-0.378 0.306-0.618l0.009-0.136v-1h0.917c0.221 0 0.435-0.088 0.603-0.246s0.275-0.378 0.306-0.618l0.009-0.136c0-0.242-0.080-0.475-0.226-0.657s-0.347-0.301-0.566-0.333l-0.125-0.009h-0.917v-1c0-0.242-0.080-0.475-0.226-0.657s-0.347-0.301-0.566-0.333z"></path>
</symbol>
<symbol id="icon-mdi_casino-chip" viewBox="0 0 29 32">
<path d="M28.113 16c0 8.107-6.013 14.667-13.444 14.667s-13.444-6.56-13.444-14.667 6.013-14.667 13.444-14.667c7.431 0 13.444 6.56 13.444 14.667zM15.891 5.413c2.603 0.36 4.974 1.853 6.563 4.133l2.127-1.333c-1.004-1.545-2.299-2.838-3.797-3.795s-3.166-1.554-4.893-1.752v2.747zM4.756 8.213l2.127 1.333c0.788-1.13 1.774-2.077 2.901-2.787s2.372-1.167 3.663-1.347v-2.747c-1.726 0.198-3.394 0.795-4.893 1.752s-2.793 2.25-3.797 3.795zM3.534 21.467l2.114-1.333c-0.502-1.309-0.761-2.714-0.761-4.133s0.259-2.824 0.761-4.133l-2.114-1.333c-0.719 1.716-1.091 3.58-1.091 5.467s0.372 3.751 1.091 5.467zM13.446 26.587c-1.291-0.179-2.536-0.637-3.663-1.347s-2.113-1.657-2.901-2.787l-2.127 1.333c1.004 1.545 2.299 2.838 3.797 3.795s3.166 1.554 4.893 1.752v-2.747zM24.581 23.787l-2.127-1.333c-0.788 1.13-1.774 2.077-2.901 2.787s-2.372 1.167-3.663 1.347v2.667c3.483-0.387 6.649-2.373 8.69-5.467zM25.803 21.467c1.455-3.467 1.455-7.467 0-10.933l-2.114 1.333c0.502 1.309 0.761 2.714 0.761 4.133s-0.259 2.824-0.761 4.133l2.114 1.333zM18.335 16l-3.667-6.667-3.667 6.667 3.667 6.667 3.667-6.667z"></path>
</symbol>
<symbol id="icon-ph_car-fill" viewBox="0 0 29 32">
<path d="M27.5 13h-1.237l-3.183-7.813c-0.144-0.353-0.379-0.654-0.676-0.865s-0.644-0.323-0.999-0.323h-13.475c-0.355 0-0.702 0.112-0.999 0.323s-0.532 0.511-0.676 0.865l-3.183 7.813h-1.238c-0.243 0-0.476 0.105-0.648 0.293s-0.268 0.442-0.268 0.707c0 0.265 0.097 0.52 0.268 0.707s0.405 0.293 0.648 0.293h0.917v10c0 0.53 0.193 1.039 0.537 1.414s0.81 0.586 1.296 0.586h2.75c0.486 0 0.953-0.211 1.296-0.586s0.537-0.884 0.537-1.414v-1h11v1c0 0.53 0.193 1.039 0.537 1.414s0.81 0.586 1.296 0.586h2.75c0.486 0 0.953-0.211 1.296-0.586s0.537-0.884 0.537-1.414v-10h0.917c0.243 0 0.476-0.105 0.648-0.293s0.269-0.442 0.269-0.707-0.097-0.52-0.269-0.707c-0.172-0.188-0.405-0.293-0.648-0.293zM9.167 19h-2.75c-0.243 0-0.476-0.105-0.648-0.293s-0.268-0.442-0.268-0.707 0.097-0.52 0.268-0.707c0.172-0.188 0.405-0.293 0.648-0.293h2.75c0.243 0 0.476 0.105 0.648 0.293s0.268 0.442 0.268 0.707-0.097 0.52-0.268 0.707c-0.172 0.188-0.405 0.293-0.648 0.293zM22.917 19h-2.75c-0.243 0-0.476-0.105-0.648-0.293s-0.269-0.442-0.269-0.707 0.097-0.52 0.269-0.707c0.172-0.188 0.405-0.293 0.648-0.293h2.75c0.243 0 0.476 0.105 0.648 0.293s0.269 0.442 0.269 0.707-0.097 0.52-0.269 0.707c-0.172 0.188-0.405 0.293-0.648 0.293zM5.077 13l2.852-7h13.475l2.852 7h-19.179z"></path>
</symbol>
</defs>
</svg>
